<svg width="1478" height="1291" viewBox="0 0 1478 1291" fill="none" xmlns="http://www.w3.org/2000/svg">
<path d="M697.62 505.432C695.977 487.85 695.159 467.708 707.241 454.015C733.35 424.423 783.301 441.196 783.833 481.521C783.933 489.302 783.866 496.913 783.767 504.59C802.967 504.416 820.87 501.897 835.63 516.782C845.766 527.008 847.571 536.61 847.978 550.261C848.818 578.486 825.71 596.966 798.635 595.899C794.776 595.747 787.716 595.948 784.116 594.78C782.918 614.023 786.868 632.744 771.352 648.407C763.119 656.643 751.91 661.212 740.268 661.08C729.084 661.027 717.636 656.94 709.713 648.902C695.137 634.115 696.978 611.834 697.284 592.69L696.81 592.193C677.232 591.298 659.035 594.772 643.376 580.08C634.832 572.061 629.875 560.942 629.624 549.229C629.418 538.118 633.54 525.864 641.554 518.03C656.142 503.773 678.857 505.335 697.62 505.432ZM704.173 594.829C703.82 610.657 702.558 631.473 714.371 643.493C728.619 657.99 751.661 657.477 765.905 643.443C775.875 633.626 777.305 619.877 777.322 606.807C777.297 602.796 777.206 598.785 777.048 594.776C772.84 596.249 708.841 595.982 704.173 594.829ZM697.341 512.116C680.393 511.938 660.041 510.125 647.131 523.128C640.533 529.771 636.582 539.542 636.589 548.878C636.647 558.572 640.593 567.837 647.544 574.596C660.612 587.128 680.334 585.536 697.26 585.358C697.079 560.944 697.106 536.53 697.341 512.116ZM704.021 589.069L772.732 589.184C780.864 589.193 801.969 589.675 808.779 588.269C832.312 584.024 845.625 563.595 840.578 540.75C832.828 505.68 802.792 511.903 777.43 511.004C777.497 492.068 780.407 470.134 765.888 455.773C758.696 448.658 747.752 445.023 737.774 445.767C697.768 452.605 703.858 484.26 703.891 515.663L704.021 589.069Z" fill="#262E53"/>
<path d="M697.284 592.689C699.743 593.088 702.514 593.148 704.173 594.829C703.82 610.657 702.558 631.473 714.371 643.492C728.619 657.99 751.661 657.476 765.905 643.442C775.875 633.626 777.305 619.877 777.322 606.806C777.297 602.795 777.206 598.785 777.048 594.776C779.002 593.177 779.01 593.317 781.413 593.006C783.55 593.887 782.827 593.171 784.116 594.779C782.918 614.023 786.868 632.744 771.352 648.407C763.119 656.643 751.91 661.211 740.268 661.08C729.084 661.027 717.636 656.94 709.713 648.902C695.137 634.115 696.978 611.834 697.284 592.689Z" fill="#798FD1"/>
<path d="M696.81 592.193C677.232 591.298 659.035 594.772 643.376 580.08C634.832 572.061 629.875 560.941 629.624 549.229C629.418 538.117 633.54 525.863 641.554 518.03C656.142 503.773 678.857 505.335 697.62 505.432L697.341 512.116C680.393 511.938 660.041 510.125 647.131 523.128C640.533 529.771 636.582 539.541 636.589 548.878C636.647 558.571 640.593 567.837 647.544 574.596C660.612 587.128 680.334 585.536 697.26 585.357C697.634 588.967 698.237 589.213 696.81 592.193Z" fill="#798FD1"/>
<path d="M421.147 706.481C455.117 706.898 524.614 695.458 508.072 751.25C505.254 760.755 495.666 766.002 487.252 769.327C517.62 777.227 503.616 805.059 511.084 826.582L511.338 827.297L510.596 827.953C496.933 828.706 500.179 816.294 500.365 806.148C496.866 779.591 495.313 772.588 465.308 772.977C453.535 773.13 440.816 773.213 428.908 773.525C428.859 782.954 429.765 820.143 428.324 827.588C425.806 828.47 423.046 828.149 421.122 826.333C420.574 814.909 421.127 798.555 421.132 786.633L421.147 706.481ZM429.032 766.079C446.476 766.126 472.215 767.734 488.064 762.7C511.054 746.297 505.186 716.951 476.569 714.203C462.795 712.881 447.94 713.538 434.015 713.619C431.081 713.937 430.594 713.432 429.046 715.039C428.291 727.038 428.568 753.461 429.032 766.079Z" fill="#262E53"/>
<path d="M923.748 706.535C927.174 706.425 929.112 706.094 932.33 707.282C936.479 714.691 978.065 819.131 979.312 826.714C977.458 828.157 975.695 827.81 973.25 827.816C968.602 824.183 958.898 796.056 956.212 788.964L933.976 788.859L899.559 788.964C896.798 795.438 886.404 825.116 882.87 827.664C879.61 827.882 879.277 827.953 876.143 827.252C876.633 821.754 889.797 790.799 892.69 783.623L923.748 706.535ZM902.037 782.255L928.971 782.296L953.509 782.269C949.959 773.031 931.598 720.832 927.765 716.195C920.081 737.831 910.477 760.741 902.037 782.255Z" fill="#262E53"/>
<path d="M675.722 704.263C703.596 703.168 727.754 708.097 730.298 740.466C729.143 742.742 729.982 741.821 727.421 743.047C721.093 741.007 718.84 724.476 713.203 720.128C698.172 708.535 670.274 706.809 656.835 721.751C653.321 725.659 650.903 732.078 651.561 737.198C655.651 769.007 706.714 756.227 725.292 775.488C730.814 780.588 733.009 786.372 733.442 793.878C735.055 821.973 712.921 830.057 688.829 831.136C668.433 829.067 646.538 825.179 641.11 801.256C640.207 797.279 638.502 792.042 640.759 788.369C643.701 786.995 643.035 787.469 646.712 787.695C648.176 789.262 648.86 794.996 649.121 797.36C652.414 827.263 707.185 832.94 722 809.008C725.384 803.524 726.365 796.89 724.702 790.663C717.165 761.652 650.631 776.855 644.002 744.067C639.111 719.873 653.567 708.526 675.722 704.263Z" fill="#262E53"/>
<path d="M804.264 704.4C836.985 702.051 854.705 711.34 863.711 743.487C861.225 743.64 857.99 743.37 855.445 743.237C855.287 742.688 855.13 742.141 854.963 741.597C851.704 731.121 844.694 719.994 834.291 715.576C766.712 686.859 738.622 794.728 794.419 819.626C805.387 824.63 817.926 824.957 829.152 820.532C829.842 820.247 830.524 819.94 831.189 819.609C843.014 813.697 851.82 803.099 855.462 790.394C856.543 786.669 856.102 784.116 857.316 780.46C859.994 779.591 860.618 779.873 863.52 780.259C869.041 786.549 859.553 802.564 855.903 808.651C841.176 833.173 803.466 838.119 781.197 821.358C741.075 791.164 748.759 713.985 804.264 704.4Z" fill="#262E53"/>
<path d="M538.538 706.449C557.459 706.575 576.381 706.598 595.302 706.517C599.293 706.513 616.819 706.223 619.81 706.91C620.454 709.395 621.013 711.635 619.203 713.536C595.046 713.753 570.743 713.294 546.614 713.856L546.68 761.146C549.07 760.972 558.333 760.757 560.617 760.991C568.46 761.791 611.762 758.894 614.873 762.528C615.065 765.742 615.548 765.354 614.212 767.674C611.629 768.797 561.814 768.276 554.984 768.283L546.586 768.424L546.737 820.541C554.159 820.55 617.875 819.93 620.751 821.298C620.964 824.073 621.32 825.198 620.229 827.637C598.118 828.99 561.714 827.924 538.523 827.888L538.538 706.449Z" fill="#262E53"/>
<path d="M1002.33 692.042C1005.2 692.097 1006.84 691.749 1008.77 693.243C1009.84 701.677 1009.15 727.226 1009.16 737.584C1017.95 737.557 1061.24 736.945 1066.74 738.059C1067.95 740.598 1067.45 742.863 1067.25 745.753L1000.6 745.772L1000.48 701.767C1000.5 698.043 999.959 694.386 1002.33 692.042Z" fill="#262E53"/>
<path d="M1000.85 764.059C1003.51 764.03 1006.45 763.67 1008.72 764.846C1009.11 768.336 1009.16 771.809 1009.13 775.317C1008.95 792.858 1009.51 810.449 1008.88 827.981C1005.71 828.039 1004.74 828.006 1001.62 827.455C999.668 824.063 1000.56 771.582 1000.85 764.059Z" fill="#262E53"/>
</svg>
